# xmcd CD database file
#
# Track frame offsets:
#	150
#	50816
#	70241
#	98166
#	121454
#	142774
#	165702
#	186716
#	218579
#	237775
#	268611
#	291278
#	311958
#
# Disc length: 4456 seconds
#
# Revision: 1
# Processed by: cddbd v1.5.2PL0 Copyright (c) Steve Scherf et al.
# Submitted via: CDex 1.75
#
DISCID=cb11660d
DTITLE=Yusef Lateef - Four Classic Albums CD1
DYEAR=2014
DGENRE=Jazz
TTITLE0=Take the "a" train
TTITLE1=Playful flute
TTITLE2=Love and humor
TTITLE3=Buckingham
TTITLE4=Meditation
TTITLE5=Going home
TTITLE6=Im just a lucky so and so
TTITLE7=Quarantine
TTITLE8=From Within
TTITLE9=Salt water blues
TTITLE10=Lateef minor 7th
TTITLE11=Adoration
TTITLE12=Ma hes making eyes at me
EXTD=YEAR: 2014
EXTT0=
EXTT1=
EXTT2=
EXTT3=
EXTT4=
EXTT5=
EXTT6=
EXTT7=
EXTT8=
EXTT9=
EXTT10=
EXTT11=
EXTT12=
PLAYORDER=
